<svg xmlns="http://www.w3.org/2000/svg" viewBox="0 0 640 420" role="img" aria-labelledby="title desc">
  <title id="title">Glossary reward vault</title>
  <desc id="desc">A restored vault sending precision income to the community network.</desc>
  <defs>
    <radialGradient id="bg" cx="50%" cy="45%" r="70%">
      <stop offset="0" stop-color="#184f48"/>
      <stop offset=".58" stop-color="#0a1839"/>
      <stop offset="1" stop-color="#050815"/>
    </radialGradient>
    <linearGradient id="gold" x1="0" y1="0" x2="1" y2="1">
      <stop offset="0" stop-color="#ffd86c"/>
      <stop offset=".48" stop-color="#ffb84e"/>
      <stop offset="1" stop-color="#72f7b8"/>
    </linearGradient>
    <filter id="glow" x="-70%" y="-70%" width="240%" height="240%">
      <feGaussianBlur stdDeviation="8" result="blur"/>
      <feMerge>
        <feMergeNode in="blur"/>
        <feMergeNode in="SourceGraphic"/>
      </feMerge>
    </filter>
  </defs>
  <rect width="640" height="420" rx="42" fill="url(#bg)"/>
  <g opacity=".26" stroke="#62f0ff" stroke-width="2">
    <path d="M320 206L104 116M320 206l216-88M320 206L128 318M320 206l202 110"/>
  </g>
  <g filter="url(#glow)">
    <circle cx="320" cy="206" r="112" fill="#102a38" stroke="url(#gold)" stroke-width="8"/>
    <rect x="262" y="166" width="116" height="92" rx="18" fill="#0b1730" stroke="#ffd86c" stroke-width="4"/>
    <path d="M288 166v-18c0-24 18-42 32-42s32 18 32 42v18" fill="none" stroke="#ffd86c" stroke-width="8" stroke-linecap="round"/>
    <circle cx="320" cy="212" r="14" fill="#ffd86c"/>
    <path d="M320 226v24" stroke="#ffd86c" stroke-width="6" stroke-linecap="round"/>
    <circle cx="104" cy="116" r="28" fill="#0e3150" stroke="#72f7b8" stroke-width="4"/>
    <circle cx="536" cy="118" r="28" fill="#0e3150" stroke="#72f7b8" stroke-width="4"/>
    <circle cx="128" cy="318" r="28" fill="#0e3150" stroke="#72f7b8" stroke-width="4"/>
    <circle cx="522" cy="316" r="28" fill="#0e3150" stroke="#72f7b8" stroke-width="4"/>
  </g>
  <g font-family="Outfit, Arial, sans-serif" font-weight="900" text-anchor="middle" fill="#ffffff">
    <text x="320" y="314" font-size="24">PRECISION INCOME</text>
    <text x="104" y="122" font-size="14">SHOP</text>
    <text x="536" y="124" font-size="14">GLOBAL</text>
    <text x="128" y="324" font-size="14">CLASS</text>
    <text x="522" y="322" font-size="14">READY</text>
  </g>
</svg>
