<svg xmlns="http://www.w3.org/2000/svg" viewBox="0 0 520 360" role="img" aria-labelledby="title desc">
  <title id="title">Equity pathway</title>
  <desc id="desc">A shared table with equal seats and rising opportunity signals.</desc>
  <defs>
    <linearGradient id="bg" x1="0" y1="0" x2="1" y2="1">
      <stop offset="0" stop-color="#3b1d3f"/>
      <stop offset="1" stop-color="#07111f"/>
    </linearGradient>
    <linearGradient id="warm" x1="0" y1="0" x2="1" y2="1">
      <stop offset="0" stop-color="#ff7b72"/>
      <stop offset="1" stop-color="#ffd166"/>
    </linearGradient>
  </defs>
  <rect width="520" height="360" rx="28" fill="url(#bg)"/>
  <path d="M92 282h336" stroke="#ffd5dd" stroke-opacity=".18" stroke-width="7" stroke-linecap="round"/>
  <g fill="#0b1729" stroke="#ffd5dd" stroke-opacity=".22" stroke-width="2">
    <rect x="130" y="178" width="260" height="70" rx="28"/>
    <rect x="164" y="241" width="26" height="52" rx="10"/>
    <rect x="330" y="241" width="26" height="52" rx="10"/>
  </g>
  <g fill="url(#warm)">
    <circle cx="152" cy="132" r="33"/>
    <circle cx="260" cy="111" r="38"/>
    <circle cx="368" cy="132" r="33"/>
  </g>
  <g stroke="#ffd5dd" stroke-linecap="round" stroke-width="13">
    <path d="M103 222c21-46 77-46 98 0"/>
    <path d="M198 209c27-58 97-58 124 0"/>
    <path d="M319 222c21-46 77-46 98 0"/>
  </g>
  <path d="M260 170v-36M242 152h36" stroke="#07111f" stroke-width="10" stroke-linecap="round"/>
  <g fill="#68d2ff" opacity=".78">
    <rect x="84" y="72" width="48" height="16" rx="8"/>
    <rect x="388" y="72" width="48" height="16" rx="8"/>
    <rect x="216" y="56" width="88" height="16" rx="8"/>
  </g>
</svg>
