<svg xmlns="http://www.w3.org/2000/svg" viewBox="0 0 520 360" role="img" aria-labelledby="title desc">
  <title id="title">Global opportunity pathway</title>
  <desc id="desc">A glowing world map with routes connecting learning and opportunity.</desc>
  <defs>
    <linearGradient id="bg" x1="0" y1="0" x2="1" y2="1">
      <stop offset="0" stop-color="#3d3214"/>
      <stop offset="1" stop-color="#07111f"/>
    </linearGradient>
    <linearGradient id="gold" x1="0" y1="0" x2="1" y2="1">
      <stop offset="0" stop-color="#ffd166"/>
      <stop offset="1" stop-color="#ff9f1c"/>
    </linearGradient>
  </defs>
  <rect width="520" height="360" rx="28" fill="url(#bg)"/>
  <circle cx="260" cy="180" r="112" fill="#0b1729" stroke="#ffd166" stroke-opacity=".32" stroke-width="4"/>
  <circle cx="260" cy="180" r="76" fill="none" stroke="#ffd166" stroke-opacity=".22" stroke-width="3"/>
  <path d="M148 180h224M260 68c44 43 44 181 0 224M260 68c-44 43-44 181 0 224" stroke="#ffd166" stroke-opacity=".2" stroke-width="3" fill="none"/>
  <g fill="#123552">
    <path d="M192 151c26-33 61-37 90-17 24 17 52 13 71 43-32 18-61 17-88 2-25-14-48 2-73-28Z"/>
    <path d="M209 214c26-11 56-10 78 7 16 13 35 19 58 13-17 31-55 43-93 29-25-9-40-25-43-49Z"/>
  </g>
  <g fill="url(#gold)">
    <circle cx="174" cy="139" r="13"/>
    <circle cx="343" cy="162" r="13"/>
    <circle cx="219" cy="245" r="13"/>
    <circle cx="308" cy="231" r="13"/>
  </g>
  <g stroke="#68d2ff" stroke-width="6" stroke-linecap="round" fill="none">
    <path d="M174 139c49-48 111-42 169 23"/>
    <path d="M343 162c-36 49-76 73-124 83"/>
    <path d="M219 245c33 7 62 2 89-14"/>
  </g>
  <path d="M382 92l42 19-42 19 12-19-12-19Z" fill="#80ed99"/>
</svg>
