<svg xmlns="http://www.w3.org/2000/svg" viewBox="0 0 520 360" role="img" aria-labelledby="title desc">
  <title id="title">Climate pathway</title>
  <desc id="desc">A glowing green city garden with clean energy signals.</desc>
  <defs>
    <linearGradient id="sky" x1="0" y1="0" x2="1" y2="1">
      <stop offset="0" stop-color="#123552"/>
      <stop offset="1" stop-color="#07111f"/>
    </linearGradient>
    <linearGradient id="leaf" x1="0" y1="0" x2="1" y2="1">
      <stop offset="0" stop-color="#80ed99"/>
      <stop offset="1" stop-color="#38d5c8"/>
    </linearGradient>
  </defs>
  <rect width="520" height="360" rx="28" fill="url(#sky)"/>
  <circle cx="404" cy="74" r="38" fill="#80ed99" opacity=".2"/>
  <path d="M70 280h386" stroke="#d7e6ff" stroke-opacity=".18" stroke-width="6" stroke-linecap="round"/>
  <g fill="#0d2740">
    <rect x="76" y="152" width="58" height="128" rx="12"/>
    <rect x="148" y="116" width="68" height="164" rx="12"/>
    <rect x="302" y="132" width="62" height="148" rx="12"/>
    <rect x="379" y="166" width="54" height="114" rx="12"/>
  </g>
  <g fill="#68d2ff" opacity=".45">
    <rect x="92" y="172" width="14" height="18" rx="4"/>
    <rect x="170" y="139" width="14" height="18" rx="4"/>
    <rect x="195" y="139" width="14" height="18" rx="4"/>
    <rect x="323" y="153" width="14" height="18" rx="4"/>
    <rect x="397" y="187" width="14" height="18" rx="4"/>
  </g>
  <g stroke="url(#leaf)" stroke-linecap="round" stroke-width="12">
    <path d="M238 280c12-58 40-105 92-143"/>
    <path d="M251 242c-38-18-56-47-50-88 43 4 68 32 50 88Z" fill="url(#leaf)" stroke="none"/>
    <path d="M292 203c-5-43 17-78 64-100 16 46-5 82-64 100Z" fill="url(#leaf)" stroke="none"/>
    <path d="M202 277c-20-37-16-73 18-109 31 37 26 75-18 109Z" fill="url(#leaf)" stroke="none"/>
  </g>
  <g fill="#ffd166">
    <circle cx="402" cy="74" r="18"/>
    <path d="M402 28v21M402 99v21M356 74h21M427 74h21M369 41l15 15M420 92l15 15M435 41l-15 15M384 92l-15 15" stroke="#ffd166" stroke-width="8" stroke-linecap="round"/>
  </g>
</svg>
