<svg xmlns="http://www.w3.org/2000/svg" width="1024" height="1024" viewBox="0 0 1024 1024"><defs><clipPath id="c"><path d="M512 55L808 146Q855 161 872 208L962 508L872 816Q856 863 808 878L512 969L216 878Q168 863 152 816L62 508L152 208Q169 161 216 146Z"/></clipPath><linearGradient id="bg" x1="100" y1="70" x2="900" y2="950" gradientUnits="userSpaceOnUse"><stop stop-color="#102044"/><stop offset=".5" stop-color="#1F2A55"/><stop offset="1" stop-color="#053747"/></linearGradient><filter id="ds" x="-20%" y="-20%" width="140%" height="140%"><feDropShadow dx="0" dy="24" stdDeviation="26" flood-color="#07132E" flood-opacity=".35"/></filter></defs><g filter="url(#ds)"><path d="M512 55L808 146Q855 161 872 208L962 508L872 816Q856 863 808 878L512 969L216 878Q168 863 152 816L62 508L152 208Q169 161 216 146Z" fill="url(#bg)" stroke="#5DC6EC" stroke-width="14"/><g clip-path="url(#c)"><path d="M62 155H512L282 914L62 815Z" fill="#FFCF01" opacity=".72"/><path d="M512 55L962 508L512 969Z" fill="#00718D" opacity=".75"/><path d="M178 205L848 859" stroke="#FFFFFF" stroke-opacity=".11" stroke-width="34"/><path d="M230 770L808 182" stroke="#102044" stroke-opacity=".36" stroke-width="24"/><path d="M136 500H306L360 446H514L570 390H822" fill="none" stroke="#5DC6EC" stroke-width="7" stroke-opacity=".58"/><path d="M204 704H394L450 760H672" fill="none" stroke="#FFCF01" stroke-width="7" stroke-opacity=".5"/><circle cx="306" cy="500" r="12" fill="#FFCF01"/><circle cx="514" cy="446" r="10" fill="#5DC6EC"/><circle cx="822" cy="390" r="11" fill="#FFFFFF" fill-opacity=".75"/></g></g><g><circle cx="512" cy="500" r="226" fill="#102044" fill-opacity=".58" stroke="#FFFFFF" stroke-width="34"/><path d="M512 500L512 338M512 500L392 612" fill="none" stroke="#FFFFFF" stroke-width="34" stroke-linecap="round" stroke-linejoin="round"/><path d="M512 278V322M512 678V722M290 500H334M690 500H734" fill="none" stroke="#5DC6EC" stroke-width="24" stroke-linecap="round" stroke-linejoin="round"/><path d="M690 300Q784 392 784 512" fill="none" stroke="#FFCF01" stroke-width="24" stroke-linecap="round" stroke-linejoin="round"/><path d="M765 504L790 536L816 498" fill="none" stroke="#FFCF01" stroke-width="24" stroke-linecap="round" stroke-linejoin="round"/></g><g transform="translate(725 725)"><circle r="170" fill="#07132E" fill-opacity=".42"/><circle r="158" fill="#102044" stroke="#FFCF01" stroke-width="16"/><circle r="128" fill="#00718D" fill-opacity=".5" stroke="#5DC6EC" stroke-width="5"/><g><rect x="-78" y="-78" width="132" height="132" rx="18" fill="none" stroke="#FFFFFF" stroke-width="15" stroke-linecap="round" stroke-linejoin="round"/><path d="M-34-78V54M10-78V54M-78-34H54M-78 10H54" fill="none" stroke="#5DC6EC" stroke-width="12" stroke-linecap="round" stroke-linejoin="round"/><circle cx="66" cy="62" r="34" fill="none" stroke="#FFCF01" stroke-width="12" stroke-linecap="round" stroke-linejoin="round"/><path d="M66 38V86M42 62H90" fill="none" stroke="#FFCF01" stroke-width="12" stroke-linecap="round" stroke-linejoin="round"/></g></g></svg>