<svg xmlns="http://www.w3.org/2000/svg" width="1024" height="1024" viewBox="0 0 1024 1024"><defs><clipPath id="c"><path d="M512 55L808 146Q855 161 872 208L962 508L872 816Q856 863 808 878L512 969L216 878Q168 863 152 816L62 508L152 208Q169 161 216 146Z"/></clipPath><linearGradient id="bg" x1="100" y1="70" x2="900" y2="950" gradientUnits="userSpaceOnUse"><stop stop-color="#102044"/><stop offset=".5" stop-color="#1F2A55"/><stop offset="1" stop-color="#053747"/></linearGradient><filter id="ds" x="-20%" y="-20%" width="140%" height="140%"><feDropShadow dx="0" dy="24" stdDeviation="26" flood-color="#07132E" flood-opacity=".35"/></filter></defs><g filter="url(#ds)"><path d="M512 55L808 146Q855 161 872 208L962 508L872 816Q856 863 808 878L512 969L216 878Q168 863 152 816L62 508L152 208Q169 161 216 146Z" fill="url(#bg)" stroke="#5DC6EC" stroke-width="14"/><g clip-path="url(#c)"><path d="M62 155H512L282 914L62 815Z" fill="#FFCF01" opacity=".72"/><path d="M512 55L962 508L512 969Z" fill="#00718D" opacity=".75"/><path d="M178 205L848 859" stroke="#FFFFFF" stroke-opacity=".11" stroke-width="34"/><path d="M230 770L808 182" stroke="#102044" stroke-opacity=".36" stroke-width="24"/><path d="M136 500H306L360 446H514L570 390H822" fill="none" stroke="#5DC6EC" stroke-width="7" stroke-opacity=".58"/><path d="M204 704H394L450 760H672" fill="none" stroke="#FFCF01" stroke-width="7" stroke-opacity=".5"/><circle cx="306" cy="500" r="12" fill="#FFCF01"/><circle cx="514" cy="446" r="10" fill="#5DC6EC"/><circle cx="822" cy="390" r="11" fill="#FFFFFF" fill-opacity=".75"/></g></g><g><path d="M512 238Q380 238 352 360Q330 456 412 540Q456 584 456 654H568Q568 584 612 540Q694 456 672 360Q644 238 512 238Z" fill="#102044" fill-opacity=".62" stroke="#FFFFFF" stroke-width="32" stroke-linejoin="round"/><path d="M448 724H576M464 786H560" fill="none" stroke="#5DC6EC" stroke-width="24" stroke-linecap="round" stroke-linejoin="round"/><path d="M430 420L492 482L606 360" fill="none" stroke="#FFCF01" stroke-width="24" stroke-linecap="round" stroke-linejoin="round"/><circle cx="512" cy="446" r="104" fill="none" stroke="#5DC6EC" stroke-opacity=".55" stroke-width="18"/></g><g transform="translate(725 725)"><circle r="170" fill="#07132E" fill-opacity=".42"/><circle r="158" fill="#102044" stroke="#FFCF01" stroke-width="16"/><circle r="128" fill="#00718D" fill-opacity=".5" stroke="#5DC6EC" stroke-width="5"/><g><path d="M-66-80H28L70-38V64H-66Z" fill="none" stroke="#FFFFFF" stroke-width="15" stroke-linecap="round" stroke-linejoin="round"/><path d="M28-80V-38H70M-34-22H28M-34 18H42" fill="none" stroke="#5DC6EC" stroke-width="12" stroke-linecap="round" stroke-linejoin="round"/><circle cx="20" cy="48" r="34" fill="#102044" stroke="#FFCF01" stroke-width="12"/><path d="M44 72L86 104" fill="none" stroke="#FFCF01" stroke-width="12" stroke-linecap="round" stroke-linejoin="round"/></g></g></svg>